<svg xmlns="http://www.w3.org/2000/svg" width="1830" height="50" viewBox="0 0 1830 50" fill="none">
  <mask id="path-1-inside-1_1_3016" fill="white">
    <path fill-rule="evenodd" clip-rule="evenodd" d="M6 50C2.68629 50 0 47.3137 0 44V27.6729C0 25.7705 0.902172 23.9808 2.43152 22.8494L31.7266 1.17652C32.7594 0.412402 34.0103 0 35.295 0H1824C1827.31 0 1830 2.68629 1830 6V22.6889C1830 24.5913 1829.1 26.381 1827.57 27.5124L1798.76 48.8235C1797.73 49.5876 1796.48 50 1795.19 50H6Z"/>
  </mask>
  <path d="M1798.76 48.8235L1798.17 48.0196L1798.76 48.8235ZM1827.57 27.5124L1826.97 26.7085L1827.57 27.5124ZM31.7266 1.17652L31.1318 0.372605L31.7266 1.17652ZM-1 27.6729V44H1V27.6729H-1ZM31.1318 0.372605L1.83678 22.0455L3.02627 23.6533L32.3213 1.98043L31.1318 0.372605ZM1824 -1H35.295V1H1824V-1ZM1831 22.6889V6H1829V22.6889H1831ZM1799.36 49.6274L1828.16 28.3163L1826.97 26.7085L1798.17 48.0196L1799.36 49.6274ZM6 51H1795.19V49H6V51ZM1798.17 48.0196C1797.31 48.6563 1796.26 49 1795.19 49V51C1796.69 51 1798.15 50.5189 1799.36 49.6274L1798.17 48.0196ZM1829 22.6889C1829 24.2742 1828.25 25.7656 1826.97 26.7085L1828.16 28.3163C1829.95 26.9963 1831 24.9084 1831 22.6889H1829ZM1824 1C1826.76 1 1829 3.23858 1829 6H1831C1831 2.13401 1827.87 -1 1824 -1V1ZM32.3213 1.98043C33.182 1.34367 34.2244 1 35.295 1V-1C33.7961 -1 32.3368 -0.518863 31.1318 0.372605L32.3213 1.98043ZM-1 44C-1 47.866 2.13401 51 6 51V49C3.23858 49 1 46.7614 1 44H-1ZM1 27.6729C1 26.0876 1.75181 24.5962 3.02627 23.6533L1.83678 22.0455C0.0525338 23.3655 -1 25.4534 -1 27.6729H1Z" fill="#FEFEFE" mask="url(#path-1-inside-1_1_3016)"/>
</svg>